#!OML:ASF I:\Actors\actors\Patient Classification 2\Patient 1\Session 1\actor1.ASF
:FULLY-SPECIFIED
:DEGREES
663
root -0.662495 18.7638 5.78835 3.45961 -0.671854 -5.09536
lowerback 7.79773 0.947641 0.406382
upperback 1.73837 1.33715 1.53151
thorax -2.60103 0.665359 1.2192
lowerneck -12.6899 -3.39234 -2.33729
upperneck 34.8803 -5.62202 3.43631
head 14.2237 -2.27817 0.923495
rclavicle 8.59744e-015 -1.31198e-014
rhumerus -24.0112 35.7822 -79.895
rradius 107.167
rwrist -24.5268
rhand -8.48915 -32.6715
rfingers 7.12502
rthumb 17.4381 -421.909
lclavicle 8.59744e-015 -1.31198e-014
lhumerus 1.70978 -52.8432 54.6515
lradius 96.3523
lwrist -9.36089
lhand -25.1215 -73.337
lfingers 7.12502
lthumb 1.39426 -43.3618
rfemur 0 0 0
rtibia 0
rfoot 0 0
rtoes 0
lfemur -8.22561 -4.59016 -8.4758
ltibia 23.9616
lfoot -21.8354 12.0303
ltoes -56.0854
664
root -0.659022 18.7646 5.78981 3.46665 -0.681564 -5.06001
lowerback 7.78404 0.904763 0.405015
upperback 1.74408 1.279 1.50617
thorax -2.58586 0.636363 1.19984
lowerneck -12.7263 -3.33931 -2.3286
upperneck 34.9464 -5.53935 3.40769
head 14.2573 -2.24433 0.923182
rclavicle -2.98177e-015 1.15295e-014
rhumerus -23.9381 36.0376 -79.8278
rradius 107.481
rwrist -22.2227
rhand -8.65306 -32.1791
rfingers 7.12502
rthumb 17.2804 -421.431
lclavicle -2.98177e-015 1.15295e-014
lhumerus 1.83226 -52.8616 54.6686
lradius 96.2063
lwrist -8.80875
lhand -25.5788 -72.8492
lfingers 7.12502
lthumb 0.952587 -42.8716
rfemur 0 0 0
rtibia 0
rfoot 0 0
rtoes 0
lfemur -8.21158 -4.61997 -8.53193
ltibia 23.9594
lfoot -21.889 12.0658
ltoes -56.0902
665
root -0.655713 18.7638 5.79201 3.44719 -0.694209 -5.04101
lowerback 7.79816 0.86335 0.443694
upperback 1.74739 1.22609 1.46999
thorax -2.58768 0.609693 1.14582
lowerneck -12.736 -3.29676 -2.30791
upperneck 34.9802 -5.47541 3.38233
head 14.2705 -2.21746 0.919377
rclavicle 2.47487e-014 9.14409e-015
rhumerus -23.8652 36.0872 -79.7606
rradius 107.92
rwrist -21.5344
rhand -8.00408 -31.7358
rfingers 7.12502
rthumb 17.9049 -420.932
lclavicle 2.47487e-014 9.14409e-015
lhumerus 1.84172 -52.8819 54.7764
lradius 96.1215
lwrist -8.28619
lhand -25.6614 -72.056
lfingers 7.12502
lthumb 0.872819 -42.078
rfemur 0 0 0
rtibia 0
rfoot 0 0
rtoes 0
lfemur -8.16802 -4.67129 -8.57254
ltibia 23.9619
lfoot -21.926 12.0905
ltoes -56.077
666
root -0.654391 18.7628 5.79382 3.42713 -0.71732 -5.05872
lowerback 7.81405 0.827919 0.462107
upperback 1.74772 1.18059 1.46769
thorax -2.59497 0.586922 1.13741
lowerneck -12.7336 -3.25304 -2.29106
upperneck 34.9976 -5.40839 3.35803
head 14.2736 -2.19002 0.91728
rclavicle 9.49197e-015 2.5842e-015
rhumerus -24.041 36.5137 -79.9146
rradius 108.216
rwrist -19.8957
rhand -8.36846 -30.9261
rfingers 7.12502
rthumb 17.5543 -420.154
lclavicle 9.49197e-015 2.5842e-015
lhumerus 1.73671 -52.9164 55.0369
lradius 96.1013
lwrist -7.62078
lhand -25.3017 -71.0432
lfingers 7.12502
lthumb 1.2202 -41.0669
rfemur 0 0 0
rtibia 0
rfoot 0 0
rtoes 0
lfemur -8.13803 -4.6902 -8.56045
ltibia 23.9686
lfoot -21.9478 12.1002
ltoes -56.0517
667
root -0.653009 18.7618 5.7966 3.41868 -0.768203 -5.09868
lowerback 7.80722 0.812549 0.471392
upperback 1.74835 1.16148 1.49077
thorax -2.59049 0.577392 1.15802
lowerneck -12.7447 -3.2201 -2.28342
upperneck 35.018 -5.35121 3.32428
head 14.2815 -2.16888 0.911202
rclavicle 1.48592e-014 2.36554e-014
rhumerus -24.4054 37.3227 -80.2579
rradius 108.195
rwrist -16.6852
rhand -10.2387 -29.8387
rfingers 7.12502
rthumb 15.7538 -419.218
lclavicle 1.48592e-014 2.36554e-014
lhumerus 1.58585 -52.9382 55.4396
lradius 96.0693
lwrist -6.83743
lhand -24.9947 -70.1791
lfingers 7.12502
lthumb 1.51671 -40.2047
rfemur 0 0 0
rtibia 0
rfoot 0 0
rtoes 0
lfemur -8.11281 -4.69132 -8.5255
ltibia 23.9745
lfoot -21.992 12.1254
ltoes -56.0226
668
root -0.650529 18.7618 5.79943 3.4188 -0.848428 -5.13981
lowerback 7.80753 0.81128 0.488996
upperback 1.72731 1.16226 1.51454
thorax -2.61255 0.57774 1.17244
lowerneck -12.7389 -3.2017 -2.30125
upperneck 35.0579 -5.31201 3.2973
head 14.2965 -2.15792 0.909875
rclavicle 2.3556e-014 9.74045e-015
rhumerus -24.5882 37.7218 -80.4245
rradius 108.163
rwrist -15.0455
rhand -10.9354 -29.2851
rfingers 7.12502
rthumb 15.0827 -418.716
lclavicle 2.3556e-014 9.74045e-015
lhumerus 1.25478 -52.9211 56.0143
lradius 95.9728
lwrist -6.24778
lhand -25.1122 -69.4734
lfingers 7.12502
lthumb 1.4032 -39.4982
rfemur 0 0 0
rtibia 0
rfoot 0 0
rtoes 0
lfemur -8.07999 -4.6419 -8.49517
ltibia 23.9733
lfoot -22.0029 12.1504
ltoes -56.0892
669
root -0.648163 18.7623 5.80156 3.41824 -0.93361 -5.13499
lowerback 7.81756 0.813296 0.459311
upperback 1.6974 1.16355 1.52762
thorax -2.6499 0.578659 1.20214
lowerneck -12.7262 -3.17937 -2.34456
upperneck 35.0924 -5.26774 3.29343
head 14.3089 -2.14523 0.923328
rclavicle -1.31695e-014 -1.8487e-014
rhumerus -24.7895 38.0358 -80.6386
rradius 107.986
rwrist -13.343
rhand -11.3727 -28.7433
rfingers 7.12502
rthumb 14.6614 -418.205
lclavicle -1.31695e-014 -1.8487e-014
lhumerus 0.747033 -52.8518 56.7269
lradius 95.8943
lwrist -5.96162
lhand -25.3371 -68.6824
lfingers 7.12502
lthumb 1.18598 -38.706
rfemur 0 0 0
rtibia 0
rfoot 0 0
rtoes 0
lfemur -8.04407 -4.57517 -8.51397
ltibia 23.9662
lfoot -22.0143 12.1486
ltoes -56.1434
670
root -0.64563 18.7627 5.80498 3.4053 -1.03085 -5.08549
lowerback 7.8069 0.828502 0.408228
upperback 1.68831 1.17928 1.51666
thorax -2.65445 0.586817 1.21804
lowerneck -12.7573 -3.1774 -2.42197
upperneck 35.1235 -5.25239 3.31535
head 14.3331 -2.14532 0.947935
rclavicle 2.23633e-015 8.74653e-015
rhumerus -24.9597 38.289 -80.8851
rradius 107.768
rwrist -12.3696
rhand -11.5846 -28.786
rfingers 7.12502
rthumb 14.4573 -418.262
lclavicle 2.23633e-015 8.74653e-015
lhumerus 0.151672 -52.6722 57.5325
lradius 95.8703
lwrist -5.73134
lhand -25.149 -67.9565
lfingers 7.12502
lthumb 1.36761 -37.9812
rfemur 0 0 0
rtibia 0
rfoot 0 0
rtoes 0
lfemur -7.98316 -4.54301 -8.58977
ltibia 23.9536
lfoot -22.0787 12.16
ltoes -56.0574
671
root -0.642987 18.7616 5.80968 3.37528 -1.16649 -5.04041
lowerback 7.77265 0.855098 0.35573
upperback 1.70385 1.20941 1.50815
thorax -2.62082 0.602078 1.23634
lowerneck -12.8241 -3.19675 -2.49936
upperneck 35.1737 -5.25806 3.30592
head 14.374 -2.15791 0.955914
rclavicle 2.61899e-014 7.35503e-015
rhumerus -25.0785 38.5361 -81.0618
rradius 107.615
rwrist -12.0667
rhand -11.8896 -29.0244
rfingers 7.12502
rthumb 14.1634 -418.522
lclavicle 2.61899e-014 7.35503e-015
lhumerus -0.565944 -52.3683 58.4236
lradius 95.8856
lwrist -5.20888
lhand -24.6375 -67.39
lfingers 7.12502
lthumb 1.86163 -37.4184
rfemur 0 0 0
rtibia 0
rfoot 0 0
rtoes 0
lfemur -7.88077 -4.47031 -8.66838
ltibia 23.9331
lfoot -22.1327 12.2021
ltoes -55.996
672
root -0.640747 18.7599 5.81384 3.35873 -1.31402 -5.00776
lowerback 7.73907 0.874708 0.29426
upperback 1.71291 1.23015 1.51497
thorax -2.59465 0.612767 1.27641
lowerneck -12.8806 -3.19305 -2.52236
upperneck 35.2281 -5.22577 3.24218
head 14.409 -2.15454 0.938424
rclavicle 1.69961e-014 7.55382e-015
rhumerus -25.1634 38.7854 -81.1475
rradius 107.488
rwrist -11.2918
rhand -12.3337 -29.1239
rfingers 7.12502
rthumb 13.7354 -418.651
lclavicle 1.69961e-014 7.55382e-015
lhumerus -1.44467 -51.9302 59.4379
lradius 95.9871
lwrist -4.48123
lhand -23.9997 -66.0313
lfingers 7.12502
lthumb 2.47768 -36.0659
rfemur 0 0 0
rtibia 0
rfoot 0 0
rtoes 0
lfemur -7.7946 -4.36077 -8.72751
ltibia 23.9161
lfoot -22.149 12.251
ltoes -55.9811
673
root -0.638779 18.7597 5.81701 3.37131 -1.44824 -4.97647
lowerback 7.73165 0.890701 0.273475
upperback 1.7004 1.2492 1.49469
thorax -2.60382 0.622355 1.26528
lowerneck -12.9142 -3.17655 -2.50024
upperneck 35.2479 -5.19832 3.21258
head 14.4228 -2.14346 0.926337
rclavicle -7.35503e-015 -1.78906e-015
rhumerus -25.225 38.9003 -81.2184
rradius 107.305
rwrist -9.44884
rhand -12.868 -28.784
rfingers 7.12502
rthumb 13.2205 -418.345
lclavicle -7.35503e-015 -1.78906e-015
lhumerus -2.53465 -51.276 60.657
lradius 96.2074
lwrist -4.08694
lhand -23.1224 -63.1469
lfingers 7.12502
lthumb 3.32487 -33.193
rfemur 0 0 0
rtibia 0
rfoot 0 0
rtoes 0
lfemur -7.75825 -4.2785 -8.77929
ltibia 23.9134
lfoot -22.1747 12.2885
ltoes -55.9518
674
root -0.637101 18.7596 5.82007 3.3898 -1.57896 -4.97167
lowerback 7.73569 0.903855 0.323364
upperback 1.68491 1.26954 1.44953
thorax -2.62037 0.632063 1.18841
lowerneck -12.9037 -3.15485 -2.43529
upperneck 35.2144 -5.18126 3.20464
head 14.4017 -2.12957 0.9143
rclavicle -2.13694e-015 -2.20651e-014
rhumerus -25.3097 38.8584 -81.3076
rradius 107.161
rwrist -6.79733
rhand -13.4932 -27.8867
rfingers 7.12502
rthumb 12.6178 -417.486
lclavicle -2.13694e-015 -2.20651e-014
lhumerus -3.83923 -50.2786 62.0849
lradius 96.534
lwrist -4.28876
lhand -21.6693 -59.548
lfingers 7.12502
lthumb 4.72814 -29.6208
rfemur 0 0 0
rtibia 0
rfoot 0 0
rtoes 0
lfemur -7.73017 -4.19867 -8.80185
ltibia 23.9191
lfoot -22.2261 12.3152
ltoes -55.9786
675
root -0.635732 18.7597 5.82295 3.4134 -1.67382 -5.0033
lowerback 7.7289 0.900987 0.400554
upperback 1.66868 1.2715 1.43188
thorax -2.63132 0.632493 1.1266
lowerneck -12.8285 -3.11848 -2.3698
upperneck 35.16 -5.13581 3.17934
head 14.3543 -2.10693 0.900593
rclavicle -9.79014e-015 -7.55382e-015
rhumerus -25.4299 38.798 -81.3349
rradius 107.198
rwrist -3.79042
rhand -13.9423 -27.1796
rfingers 7.12502
rthumb 12.1848 -416.805
lclavicle -9.79014e-015 -7.55382e-015
lhumerus -5.27215 -48.9955 63.643
lradius 96.9167
lwrist -4.93369
lhand -19.7659 -56.3478
lfingers 7.12502
lthumb 6.56581 -26.4696
rfemur 0 0 0
rtibia 0
rfoot 0 0
rtoes 0
lfemur -7.71652 -4.13926 -8.77994
ltibia 23.9254
lfoot -22.2666 12.3522
ltoes -56.0553
676
root -0.633872 18.7602 5.82623 3.43879 -1.74545 -5.00624
lowerback 7.71282 0.902707 0.419404
upperback 1.65991 1.27542 1.4392
thorax -2.63125 0.634345 1.12334
lowerneck -12.7666 -3.09361 -2.38625
upperneck 35.1227 -5.10248 3.20401
head 14.3231 -2.09302 0.919619
rclavicle -6.4605e-016 -2.38542e-015
rhumerus -25.575 38.6993 -81.2393
rradius 107.387
rwrist -0.510438
rhand -14.3339 -26.743
rfingers 7.12502
rthumb 11.8072 -416.39
lclavicle -6.4605e-016 -2.38542e-015
lhumerus -6.60042 -47.7993 65.1095
lradius 97.2586
lwrist -5.58023
lhand -18.3214 -53.9851
lfingers 7.12502
lthumb 7.96017 -24.155
rfemur 0 0 0
rtibia 0
rfoot 0 0
rtoes 0
lfemur -7.7126 -4.11007 -8.78952
ltibia 23.9298
lfoot -22.28 12.4067
ltoes -56.0547
677
root -0.631547 18.7606 5.83089 3.45271 -1.82927 -4.99696
lowerback 7.7074 0.919384 0.42154
upperback 1.65287 1.29789 1.44301
thorax -2.63594 0.645518 1.12388
lowerneck -12.7578 -3.07921 -2.42544
upperneck 35.1223 -5.07868 3.22768
head 14.3221 -2.08501 0.94009
rclavicle 1.54058e-015 4.77083e-015
rhumerus -25.7992 38.5806 -81.1331
rradius 107.679
rwrist 3.18018
rhand -14.957 -26.445
rfingers 7.12502
rthumb 11.2062 -416.126
lclavicle 1.54058e-015 4.77083e-015
lhumerus -7.76285 -46.952 66.3504
lradius 97.6033
lwrist -6.06884
lhand -17.819 -51.999
lfingers 7.12502
lthumb 8.44506 -22.1879
rfemur 0 0 0
rtibia 0
rfoot 0 0
rtoes 0
lfemur -7.68218 -4.11922 -8.81706
ltibia 23.9266
lfoot -22.3167 12.471
ltoes -55.966
678
root -0.630192 18.7609 5.83525 3.45688 -1.87833 -5.0126
lowerback 7.71878 0.914942 0.439307
upperback 1.64542 1.29385 1.44991
thorax -2.64966 0.643403 1.12118
lowerneck -12.7312 -3.04683 -2.43643
upperneck 35.1125 -5.018 3.20189
head 14.3083 -2.06451 0.941534
rclavicle 2.80783e-014 1.39149e-015
rhumerus -26.0755 38.6183 -81.054
rradius 108.09
rwrist 6.87809
rhand -15.4733 -26.6726
rfingers 7.12502
rthumb 10.7082 -416.38
lclavicle 2.80783e-014 1.39149e-015
lhumerus -8.93275 -46.3352 67.4427
lradius 98.2366
lwrist -6.46553
lhand -17.1088 -49.2629
lfingers 7.12502
lthumb 9.13035 -19.4805
rfemur 0 0 0
rtibia 0
rfoot 0 0
rtoes 0
lfemur -7.64538 -4.17511 -8.80965
ltibia 23.9099
lfoot -22.3798 12.5222
ltoes -55.9361
